
    <svg
        width="1200"
        height="420"
        viewBox="0 0 1200 420"
        fill="none"
        xmlns="http://www.w3.org/2000/svg">
            <rect xmlns="http://www.w3.org/2000/svg" data-testid="card_bg" id="cardBg"
            x="0" y="0" rx="0" height="100%" stroke="#E4E2E2" fill-opacity="1"
            width="100%" fill="#0D1117" stroke-opacity="1" style="stroke:#0000; stroke-width:1;"/>

            <style>
                body {
                    font: 600 18px 'Segoe UI', Ubuntu, Sans-Serif;
                }
                .header {
                    font: 600 20px 'Segoe UI', Ubuntu, Sans-Serif;
                    text-align: center;
                    color: #58A6FF;
                    margin-top: 20px;
                }
                svg {
                    font: 600 18px 'Segoe UI', Ubuntu, Sans-Serif;
                    user-select: none;
                }
                
    .ct-label {
      fill: #58A6FF;
      color: #58A6FF;
      font-size: .75rem;
      line-height: 1;
    }

    .ct-grid-background,
    .ct-line {
      fill: none;
    }

    .ct-chart-bar .ct-label,
    .ct-chart-line .ct-label {
      display: block;
      display: -webkit-box;
      display: -moz-box;
      display: -ms-flexbox;
      display: -webkit-flex;
      display: flex;
    }

    .ct-label.ct-horizontal.ct-start {
      -webkit-box-align: flex-end;
      -webkit-align-items: flex-end;
      -ms-flex-align: flex-end;
      align-items: flex-end;
      -webkit-box-pack: flex-start;
      -webkit-justify-content: flex-start;
      -ms-flex-pack: flex-start;
      justify-content: flex-start;
      text-align: left;
      text-anchor: start;
    }

    .ct-label.ct-horizontal.ct-end {
      -webkit-box-align: flex-start;
      -webkit-align-items: flex-start;
      -ms-flex-align: flex-start;
      align-items: flex-start;
      -webkit-box-pack: flex-start;
      -webkit-justify-content: flex-start;
      -ms-flex-pack: flex-start;
      justify-content: flex-start;
      text-align: left;
      text-anchor: start;
    }

    .ct-label.ct-vertical.ct-start {
      -webkit-box-align: flex-end;
      -webkit-align-items: flex-end;
      -ms-flex-align: flex-end;
      align-items: flex-end;
      -webkit-box-pack: flex-end;
      -webkit-justify-content: flex-end;
      -ms-flex-pack: flex-end;
      justify-content: flex-end;
      text-align: right;
      text-anchor: end;
    }

    .ct-label.ct-vertical.ct-end {
      -webkit-box-align: flex-end;
      -webkit-align-items: flex-end;
      -ms-flex-align: flex-end;
      align-items: flex-end;
      -webkit-box-pack: flex-start;
      -webkit-justify-content: flex-start;
      -ms-flex-pack: flex-start;
      justify-content: flex-start;
      text-align: left;
      text-anchor: start;
    }

    .ct-grid {
      stroke: #58A6FF;
      stroke-width: 1px;
      stroke-opacity: 0.3;
      stroke-dasharray: 2px;
    }

    .ct-point {
      stroke-width: 10px;
      stroke-linecap: round;
      stroke: #58A6FF;
      animation: blink 1s ease-in-out forwards;
    }

    .ct-line {
      stroke-width: 4px;
      stroke-dasharray: 5000;
      stroke-dashoffset: 5000;
      stroke: #1F6FEB;
      animation: dash 5s ease-in-out forwards;
    }

    .ct-area {
      stroke: none;
      fill-opacity: 0.1;
    }

    .ct-series-a .ct-area,
    .ct-series-a .ct-slice-pie {
      fill: #1F6FEB;
    }

    .ct-label .ct-horizontal {
      transform: rotate(-90deg)
    }
    
                
        @keyframes blink {
            from {
                opacity: 0;
                transform:translateX(-20px); 
            }
            to {
                opacity:1;
                transform: translateX(0);
            }
        }
    
                
        @keyframes dash {
            to {
                stroke-dashoffset: 0;
            }
        }
    
    
            </style>

            <foreignObject x="0" y="0" width="1200" height="50">
                <h1 xmlns="http://www.w3.org/1999/xhtml" class="header">
                    Mustafa Emir Utku's Contribution Graph
                </h1>
            </foreignObject>
            <svg xmlns:ct="http://gionkunz.github.com/chartist-js/ct" width="1200" height="420" class="ct-chart-line"><g class="ct-grids"><line x1="90" x2="90" y1="80" y2="350" class="ct-grid ct-horizontal"></line><line x1="125.33333333333334" x2="125.33333333333334" y1="80" y2="350" class="ct-grid ct-horizontal"></line><line x1="160.66666666666669" x2="160.66666666666669" y1="80" y2="350" class="ct-grid ct-horizontal"></line><line x1="196" x2="196" y1="80" y2="350" class="ct-grid ct-horizontal"></line><line x1="231.33333333333334" x2="231.33333333333334" y1="80" y2="350" class="ct-grid ct-horizontal"></line><line x1="266.6666666666667" x2="266.6666666666667" y1="80" y2="350" class="ct-grid ct-horizontal"></line><line x1="302" x2="302" y1="80" y2="350" class="ct-grid ct-horizontal"></line><line x1="337.33333333333337" x2="337.33333333333337" y1="80" y2="350" class="ct-grid ct-horizontal"></line><line x1="372.6666666666667" x2="372.6666666666667" y1="80" y2="350" class="ct-grid ct-horizontal"></line><line x1="408" x2="408" y1="80" y2="350" class="ct-grid ct-horizontal"></line><line x1="443.33333333333337" x2="443.33333333333337" y1="80" y2="350" class="ct-grid ct-horizontal"></line><line x1="478.6666666666667" x2="478.6666666666667" y1="80" y2="350" class="ct-grid ct-horizontal"></line><line x1="514" x2="514" y1="80" y2="350" class="ct-grid ct-horizontal"></line><line x1="549.3333333333334" x2="549.3333333333334" y1="80" y2="350" class="ct-grid ct-horizontal"></line><line x1="584.6666666666667" x2="584.6666666666667" y1="80" y2="350" class="ct-grid ct-horizontal"></line><line x1="620" x2="620" y1="80" y2="350" class="ct-grid ct-horizontal"></line><line x1="655.3333333333334" x2="655.3333333333334" y1="80" y2="350" class="ct-grid ct-horizontal"></line><line x1="690.6666666666667" x2="690.6666666666667" y1="80" y2="350" class="ct-grid ct-horizontal"></line><line x1="726" x2="726" y1="80" y2="350" class="ct-grid ct-horizontal"></line><line x1="761.3333333333334" x2="761.3333333333334" y1="80" y2="350" class="ct-grid ct-horizontal"></line><line x1="796.6666666666667" x2="796.6666666666667" y1="80" y2="350" class="ct-grid ct-horizontal"></line><line x1="832" x2="832" y1="80" y2="350" class="ct-grid ct-horizontal"></line><line x1="867.3333333333334" x2="867.3333333333334" y1="80" y2="350" class="ct-grid ct-horizontal"></line><line x1="902.6666666666667" x2="902.6666666666667" y1="80" y2="350" class="ct-grid ct-horizontal"></line><line x1="938" x2="938" y1="80" y2="350" class="ct-grid ct-horizontal"></line><line x1="973.3333333333334" x2="973.3333333333334" y1="80" y2="350" class="ct-grid ct-horizontal"></line><line x1="1008.6666666666667" x2="1008.6666666666667" y1="80" y2="350" class="ct-grid ct-horizontal"></line><line x1="1044" x2="1044" y1="80" y2="350" class="ct-grid ct-horizontal"></line><line x1="1079.3333333333335" x2="1079.3333333333335" y1="80" y2="350" class="ct-grid ct-horizontal"></line><line x1="1114.6666666666667" x2="1114.6666666666667" y1="80" y2="350" class="ct-grid ct-horizontal"></line><line x1="1150" x2="1150" y1="80" y2="350" class="ct-grid ct-horizontal"></line><line y1="350" y2="350" x1="90" x2="1150" class="ct-grid ct-vertical"></line><line y1="305" y2="305" x1="90" x2="1150" class="ct-grid ct-vertical"></line><line y1="260" y2="260" x1="90" x2="1150" class="ct-grid ct-vertical"></line><line y1="215" y2="215" x1="90" x2="1150" class="ct-grid ct-vertical"></line><line y1="170" y2="170" x1="90" x2="1150" class="ct-grid ct-vertical"></line><line y1="125" y2="125" x1="90" x2="1150" class="ct-grid ct-vertical"></line><line y1="80" y2="80" x1="90" x2="1150" class="ct-grid ct-vertical"></line></g><g><g class="ct-series ct-series-a"><path d="M90,294.2C101.778,279.8,113.556,266.247,125.333,251C137.111,235.753,148.889,225.187,160.667,202.4C172.444,179.613,184.222,87.2,196,87.2C207.778,87.2,219.556,346.4,231.333,346.4C243.111,346.4,254.889,256.926,266.667,224C278.444,191.074,290.222,141.2,302,141.2C313.778,141.2,325.556,288.8,337.333,288.8C349.111,288.8,360.889,276.2,372.667,276.2C384.444,276.2,396.222,350,408,350C419.778,350,431.556,350,443.333,350C455.111,350,466.889,347.6,478.667,346.4C490.444,345.2,502.222,344.831,514,342.8C525.778,340.769,537.556,334.385,549.333,323C561.111,311.615,572.889,226.665,584.667,198.8C596.444,170.935,608.222,154.09,620,135.8C631.778,117.51,643.556,87.2,655.333,87.2C667.111,87.2,678.889,324.8,690.667,324.8C702.444,324.8,714.222,323.422,726,321.2C737.778,318.978,749.556,276.2,761.333,276.2C773.111,276.2,784.889,339.2,796.667,339.2C808.444,339.2,820.222,245.6,832,245.6C843.778,245.6,855.556,327.324,867.333,335.6C879.111,343.876,890.889,350,902.667,350C914.444,350,926.222,350,938,350C949.778,350,961.556,283.4,973.333,283.4C985.111,283.4,996.889,310.4,1008.667,310.4C1020.444,310.4,1032.222,297.186,1044,281.6C1055.778,266.014,1067.556,157.4,1079.333,157.4C1091.111,157.4,1102.889,208,1114.667,236.6C1126.444,265.2,1138.222,299,1150,330.2" class="ct-line"></path><line x1="90" y1="294.2" x2="90.01" y2="294.2" class="ct-point" ct:value="31"></line><line x1="125.33333333333334" y1="251" x2="125.34333333333335" y2="251" class="ct-point" ct:value="55"></line><line x1="160.66666666666669" y1="202.4" x2="160.67666666666668" y2="202.4" class="ct-point" ct:value="82"></line><line x1="196" y1="87.19999999999999" x2="196.01" y2="87.19999999999999" class="ct-point" ct:value="146"></line><line x1="231.33333333333334" y1="346.4" x2="231.34333333333333" y2="346.4" class="ct-point" ct:value="2"></line><line x1="266.6666666666667" y1="224" x2="266.6766666666667" y2="224" class="ct-point" ct:value="70"></line><line x1="302" y1="141.2" x2="302.01" y2="141.2" class="ct-point" ct:value="116"></line><line x1="337.33333333333337" y1="288.8" x2="337.34333333333336" y2="288.8" class="ct-point" ct:value="34"></line><line x1="372.6666666666667" y1="276.2" x2="372.6766666666667" y2="276.2" class="ct-point" ct:value="41"></line><line x1="408" y1="350" x2="408.01" y2="350" class="ct-point" ct:value="0"></line><line x1="443.33333333333337" y1="350" x2="443.34333333333336" y2="350" class="ct-point" ct:value="0"></line><line x1="478.6666666666667" y1="346.4" x2="478.6766666666667" y2="346.4" class="ct-point" ct:value="2"></line><line x1="514" y1="342.8" x2="514.01" y2="342.8" class="ct-point" ct:value="4"></line><line x1="549.3333333333334" y1="323" x2="549.3433333333334" y2="323" class="ct-point" ct:value="15"></line><line x1="584.6666666666667" y1="198.8" x2="584.6766666666667" y2="198.8" class="ct-point" ct:value="84"></line><line x1="620" y1="135.8" x2="620.01" y2="135.8" class="ct-point" ct:value="119"></line><line x1="655.3333333333334" y1="87.19999999999999" x2="655.3433333333334" y2="87.19999999999999" class="ct-point" ct:value="146"></line><line x1="690.6666666666667" y1="324.8" x2="690.6766666666667" y2="324.8" class="ct-point" ct:value="14"></line><line x1="726" y1="321.2" x2="726.01" y2="321.2" class="ct-point" ct:value="16"></line><line x1="761.3333333333334" y1="276.2" x2="761.3433333333334" y2="276.2" class="ct-point" ct:value="41"></line><line x1="796.6666666666667" y1="339.2" x2="796.6766666666667" y2="339.2" class="ct-point" ct:value="6"></line><line x1="832" y1="245.6" x2="832.01" y2="245.6" class="ct-point" ct:value="58"></line><line x1="867.3333333333334" y1="335.6" x2="867.3433333333334" y2="335.6" class="ct-point" ct:value="8"></line><line x1="902.6666666666667" y1="350" x2="902.6766666666667" y2="350" class="ct-point" ct:value="0"></line><line x1="938" y1="350" x2="938.01" y2="350" class="ct-point" ct:value="0"></line><line x1="973.3333333333334" y1="283.4" x2="973.3433333333334" y2="283.4" class="ct-point" ct:value="37"></line><line x1="1008.6666666666667" y1="310.4" x2="1008.6766666666667" y2="310.4" class="ct-point" ct:value="22"></line><line x1="1044" y1="281.6" x2="1044.01" y2="281.6" class="ct-point" ct:value="38"></line><line x1="1079.3333333333335" y1="157.4" x2="1079.3433333333335" y2="157.4" class="ct-point" ct:value="107"></line><line x1="1114.6666666666667" y1="236.6" x2="1114.6766666666667" y2="236.6" class="ct-point" ct:value="63"></line><line x1="1150" y1="330.2" x2="1150.01" y2="330.2" class="ct-point" ct:value="11"></line></g></g><g class="ct-labels"><text x="85.5" y="370" width="35.333333333333336" height="40" class="ct-label ct-horizontal ct-end">23</text><text x="120.83333333333334" y="370" width="35.333333333333336" height="40" class="ct-label ct-horizontal ct-end">24</text><text x="156.16666666666669" y="370" width="35.33333333333333" height="40" class="ct-label ct-horizontal ct-end">25</text><text x="191.5" y="370" width="35.33333333333334" height="40" class="ct-label ct-horizontal ct-end">26</text><text x="226.83333333333334" y="370" width="35.33333333333334" height="40" class="ct-label ct-horizontal ct-end">27</text><text x="262.1666666666667" y="370" width="35.333333333333314" height="40" class="ct-label ct-horizontal ct-end">28</text><text x="297.5" y="370" width="35.33333333333334" height="40" class="ct-label ct-horizontal ct-end">29</text><text x="332.83333333333337" y="370" width="35.33333333333334" height="40" class="ct-label ct-horizontal ct-end">30</text><text x="368.1666666666667" y="370" width="35.333333333333314" height="40" class="ct-label ct-horizontal ct-end">31</text><text x="403.5" y="370" width="35.33333333333337" height="40" class="ct-label ct-horizontal ct-end">1</text><text x="438.83333333333337" y="370" width="35.333333333333314" height="40" class="ct-label ct-horizontal ct-end">2</text><text x="474.1666666666667" y="370" width="35.333333333333314" height="40" class="ct-label ct-horizontal ct-end">3</text><text x="509.5" y="370" width="35.33333333333337" height="40" class="ct-label ct-horizontal ct-end">4</text><text x="544.8333333333334" y="370" width="35.333333333333314" height="40" class="ct-label ct-horizontal ct-end">5</text><text x="580.1666666666667" y="370" width="35.333333333333314" height="40" class="ct-label ct-horizontal ct-end">6</text><text x="615.5" y="370" width="35.33333333333337" height="40" class="ct-label ct-horizontal ct-end">7</text><text x="650.8333333333334" y="370" width="35.33333333333337" height="40" class="ct-label ct-horizontal ct-end">8</text><text x="686.1666666666667" y="370" width="35.33333333333326" height="40" class="ct-label ct-horizontal ct-end">9</text><text x="721.5" y="370" width="35.33333333333337" height="40" class="ct-label ct-horizontal ct-end">10</text><text x="756.8333333333334" y="370" width="35.33333333333337" height="40" class="ct-label ct-horizontal ct-end">11</text><text x="792.1666666666667" y="370" width="35.33333333333326" height="40" class="ct-label ct-horizontal ct-end">12</text><text x="827.5" y="370" width="35.33333333333337" height="40" class="ct-label ct-horizontal ct-end">13</text><text x="862.8333333333334" y="370" width="35.33333333333337" height="40" class="ct-label ct-horizontal ct-end">14</text><text x="898.1666666666667" y="370" width="35.33333333333326" height="40" class="ct-label ct-horizontal ct-end">15</text><text x="933.5" y="370" width="35.33333333333337" height="40" class="ct-label ct-horizontal ct-end">16</text><text x="968.8333333333334" y="370" width="35.33333333333337" height="40" class="ct-label ct-horizontal ct-end">17</text><text x="1004.1666666666667" y="370" width="35.33333333333337" height="40" class="ct-label ct-horizontal ct-end">18</text><text x="1039.5" y="370" width="35.33333333333326" height="40" class="ct-label ct-horizontal ct-end">19</text><text x="1074.8333333333335" y="370" width="35.33333333333337" height="40" class="ct-label ct-horizontal ct-end">20</text><text x="1110.1666666666667" y="370" width="35.33333333333326" height="40" class="ct-label ct-horizontal ct-end">21</text><text x="1145.5" y="370" width="30" height="40" class="ct-label ct-horizontal ct-end">22</text><text y="354.5" x="80" height="45" width="60" class="ct-label ct-vertical ct-start">0</text><text y="309.5" x="80" height="45" width="60" class="ct-label ct-vertical ct-start">25</text><text y="264.5" x="80" height="45" width="60" class="ct-label ct-vertical ct-start">50</text><text y="219.5" x="80" height="45" width="60" class="ct-label ct-vertical ct-start">75</text><text y="174.5" x="80" height="45" width="60" class="ct-label ct-vertical ct-start">100</text><text y="129.5" x="80" height="45" width="60" class="ct-label ct-vertical ct-start">125</text><text y="84.5" x="80" height="30" width="60" class="ct-label ct-vertical ct-start">150</text></g><text class="ct-axis-title ct-label" x="620" y="400" dominant-baseline="text-after-edge" text-anchor="middle">Days</text><text class="ct-axis-title ct-label" x="20" y="215" transform="rotate(-90, 20, 215)" dominant-baseline="hanging" text-anchor="middle">Contributions</text></svg>
    </svg>
