
    <svg
        width="1200"
        height="420"
        viewBox="0 0 1200 420"
        fill="none"
        xmlns="http://www.w3.org/2000/svg">
            <rect xmlns="http://www.w3.org/2000/svg" data-testid="card_bg" id="cardBg"
            x="0" y="0" rx="0" height="100%" stroke="#E4E2E2" fill-opacity="1"
            width="100%" fill="#0D1117" stroke-opacity="1" style="stroke:#0000; stroke-width:1;"/>

            <style>
                body {
                    font: 600 18px 'Segoe UI', Ubuntu, Sans-Serif;
                }
                .header {
                    font: 600 20px 'Segoe UI', Ubuntu, Sans-Serif;
                    text-align: center;
                    color: #58A6FF;
                    margin-top: 20px;
                }
                svg {
                    font: 600 18px 'Segoe UI', Ubuntu, Sans-Serif;
                    user-select: none;
                }
                
    .ct-label {
      fill: #58A6FF;
      color: #58A6FF;
      font-size: .75rem;
      line-height: 1;
    }

    .ct-grid-background,
    .ct-line {
      fill: none;
    }

    .ct-chart-bar .ct-label,
    .ct-chart-line .ct-label {
      display: block;
      display: -webkit-box;
      display: -moz-box;
      display: -ms-flexbox;
      display: -webkit-flex;
      display: flex;
    }

    .ct-label.ct-horizontal.ct-start {
      -webkit-box-align: flex-end;
      -webkit-align-items: flex-end;
      -ms-flex-align: flex-end;
      align-items: flex-end;
      -webkit-box-pack: flex-start;
      -webkit-justify-content: flex-start;
      -ms-flex-pack: flex-start;
      justify-content: flex-start;
      text-align: left;
      text-anchor: start;
    }

    .ct-label.ct-horizontal.ct-end {
      -webkit-box-align: flex-start;
      -webkit-align-items: flex-start;
      -ms-flex-align: flex-start;
      align-items: flex-start;
      -webkit-box-pack: flex-start;
      -webkit-justify-content: flex-start;
      -ms-flex-pack: flex-start;
      justify-content: flex-start;
      text-align: left;
      text-anchor: start;
    }

    .ct-label.ct-vertical.ct-start {
      -webkit-box-align: flex-end;
      -webkit-align-items: flex-end;
      -ms-flex-align: flex-end;
      align-items: flex-end;
      -webkit-box-pack: flex-end;
      -webkit-justify-content: flex-end;
      -ms-flex-pack: flex-end;
      justify-content: flex-end;
      text-align: right;
      text-anchor: end;
    }

    .ct-label.ct-vertical.ct-end {
      -webkit-box-align: flex-end;
      -webkit-align-items: flex-end;
      -ms-flex-align: flex-end;
      align-items: flex-end;
      -webkit-box-pack: flex-start;
      -webkit-justify-content: flex-start;
      -ms-flex-pack: flex-start;
      justify-content: flex-start;
      text-align: left;
      text-anchor: start;
    }

    .ct-grid {
      stroke: #58A6FF;
      stroke-width: 1px;
      stroke-opacity: 0.3;
      stroke-dasharray: 2px;
    }

    .ct-point {
      stroke-width: 10px;
      stroke-linecap: round;
      stroke: #58A6FF;
      animation: blink 1s ease-in-out forwards;
    }

    .ct-line {
      stroke-width: 4px;
      stroke-dasharray: 5000;
      stroke-dashoffset: 5000;
      stroke: #1F6FEB;
      animation: dash 5s ease-in-out forwards;
    }

    .ct-area {
      stroke: none;
      fill-opacity: 0.1;
    }

    .ct-series-a .ct-area,
    .ct-series-a .ct-slice-pie {
      fill: #1F6FEB;
    }

    .ct-label .ct-horizontal {
      transform: rotate(-90deg)
    }
    
                
        @keyframes blink {
            from {
                opacity: 0;
                transform:translateX(-20px); 
            }
            to {
                opacity:1;
                transform: translateX(0);
            }
        }
    
                
        @keyframes dash {
            to {
                stroke-dashoffset: 0;
            }
        }
    
    
            </style>

            <foreignObject x="0" y="0" width="1200" height="50">
                <h1 xmlns="http://www.w3.org/1999/xhtml" class="header">
                    Mustafa Emir Utku's Contribution Graph
                </h1>
            </foreignObject>
            <svg xmlns:ct="http://gionkunz.github.com/chartist-js/ct" width="1200" height="420" class="ct-chart-line"><g class="ct-grids"><line x1="90" x2="90" y1="80" y2="350" class="ct-grid ct-horizontal"></line><line x1="125.33333333333334" x2="125.33333333333334" y1="80" y2="350" class="ct-grid ct-horizontal"></line><line x1="160.66666666666669" x2="160.66666666666669" y1="80" y2="350" class="ct-grid ct-horizontal"></line><line x1="196" x2="196" y1="80" y2="350" class="ct-grid ct-horizontal"></line><line x1="231.33333333333334" x2="231.33333333333334" y1="80" y2="350" class="ct-grid ct-horizontal"></line><line x1="266.6666666666667" x2="266.6666666666667" y1="80" y2="350" class="ct-grid ct-horizontal"></line><line x1="302" x2="302" y1="80" y2="350" class="ct-grid ct-horizontal"></line><line x1="337.33333333333337" x2="337.33333333333337" y1="80" y2="350" class="ct-grid ct-horizontal"></line><line x1="372.6666666666667" x2="372.6666666666667" y1="80" y2="350" class="ct-grid ct-horizontal"></line><line x1="408" x2="408" y1="80" y2="350" class="ct-grid ct-horizontal"></line><line x1="443.33333333333337" x2="443.33333333333337" y1="80" y2="350" class="ct-grid ct-horizontal"></line><line x1="478.6666666666667" x2="478.6666666666667" y1="80" y2="350" class="ct-grid ct-horizontal"></line><line x1="514" x2="514" y1="80" y2="350" class="ct-grid ct-horizontal"></line><line x1="549.3333333333334" x2="549.3333333333334" y1="80" y2="350" class="ct-grid ct-horizontal"></line><line x1="584.6666666666667" x2="584.6666666666667" y1="80" y2="350" class="ct-grid ct-horizontal"></line><line x1="620" x2="620" y1="80" y2="350" class="ct-grid ct-horizontal"></line><line x1="655.3333333333334" x2="655.3333333333334" y1="80" y2="350" class="ct-grid ct-horizontal"></line><line x1="690.6666666666667" x2="690.6666666666667" y1="80" y2="350" class="ct-grid ct-horizontal"></line><line x1="726" x2="726" y1="80" y2="350" class="ct-grid ct-horizontal"></line><line x1="761.3333333333334" x2="761.3333333333334" y1="80" y2="350" class="ct-grid ct-horizontal"></line><line x1="796.6666666666667" x2="796.6666666666667" y1="80" y2="350" class="ct-grid ct-horizontal"></line><line x1="832" x2="832" y1="80" y2="350" class="ct-grid ct-horizontal"></line><line x1="867.3333333333334" x2="867.3333333333334" y1="80" y2="350" class="ct-grid ct-horizontal"></line><line x1="902.6666666666667" x2="902.6666666666667" y1="80" y2="350" class="ct-grid ct-horizontal"></line><line x1="938" x2="938" y1="80" y2="350" class="ct-grid ct-horizontal"></line><line x1="973.3333333333334" x2="973.3333333333334" y1="80" y2="350" class="ct-grid ct-horizontal"></line><line x1="1008.6666666666667" x2="1008.6666666666667" y1="80" y2="350" class="ct-grid ct-horizontal"></line><line x1="1044" x2="1044" y1="80" y2="350" class="ct-grid ct-horizontal"></line><line x1="1079.3333333333335" x2="1079.3333333333335" y1="80" y2="350" class="ct-grid ct-horizontal"></line><line x1="1114.6666666666667" x2="1114.6666666666667" y1="80" y2="350" class="ct-grid ct-horizontal"></line><line x1="1150" x2="1150" y1="80" y2="350" class="ct-grid ct-horizontal"></line><line y1="350" y2="350" x1="90" x2="1150" class="ct-grid ct-vertical"></line><line y1="305" y2="305" x1="90" x2="1150" class="ct-grid ct-vertical"></line><line y1="260" y2="260" x1="90" x2="1150" class="ct-grid ct-vertical"></line><line y1="215" y2="215" x1="90" x2="1150" class="ct-grid ct-vertical"></line><line y1="170" y2="170" x1="90" x2="1150" class="ct-grid ct-vertical"></line><line y1="125" y2="125" x1="90" x2="1150" class="ct-grid ct-vertical"></line><line y1="80" y2="80" x1="90" x2="1150" class="ct-grid ct-vertical"></line></g><g><g class="ct-series ct-series-a"><path d="M90,348.2C101.778,348.2,113.556,348.2,125.333,348.2C137.111,348.2,148.889,350,160.667,350C172.444,350,184.222,260.667,196,242C207.778,223.333,219.556,219.6,231.333,204.2C243.111,188.8,254.889,144.8,266.667,144.8C278.444,144.8,290.222,237.576,302,256.4C313.778,275.224,325.556,294.2,337.333,294.2C349.111,294.2,360.889,266.247,372.667,251C384.444,235.753,396.222,225.187,408,202.4C419.778,179.613,431.556,87.2,443.333,87.2C455.111,87.2,466.889,346.4,478.667,346.4C490.444,346.4,502.222,256.926,514,224C525.778,191.074,537.556,141.2,549.333,141.2C561.111,141.2,572.889,288.8,584.667,288.8C596.444,288.8,608.222,276.2,620,276.2C631.778,276.2,643.556,350,655.333,350C667.111,350,678.889,350,690.667,350C702.444,350,714.222,347.6,726,346.4C737.778,345.2,749.556,344.831,761.333,342.8C773.111,340.769,784.889,334.385,796.667,323C808.444,311.615,820.222,226.665,832,198.8C843.778,170.935,855.556,154.09,867.333,135.8C879.111,117.51,890.889,87.2,902.667,87.2C914.444,87.2,926.222,324.8,938,324.8C949.778,324.8,961.556,323.422,973.333,321.2C985.111,318.978,996.889,276.2,1008.667,276.2C1020.444,276.2,1032.222,339.2,1044,339.2C1055.778,339.2,1067.556,245.6,1079.333,245.6C1091.111,245.6,1102.889,327.324,1114.667,335.6C1126.444,343.876,1138.222,345.2,1150,350" class="ct-line"></path><line x1="90" y1="348.2" x2="90.01" y2="348.2" class="ct-point" ct:value="1"></line><line x1="125.33333333333334" y1="348.2" x2="125.34333333333335" y2="348.2" class="ct-point" ct:value="1"></line><line x1="160.66666666666669" y1="350" x2="160.67666666666668" y2="350" class="ct-point" ct:value="0"></line><line x1="196" y1="242" x2="196.01" y2="242" class="ct-point" ct:value="60"></line><line x1="231.33333333333334" y1="204.2" x2="231.34333333333333" y2="204.2" class="ct-point" ct:value="81"></line><line x1="266.6666666666667" y1="144.8" x2="266.6766666666667" y2="144.8" class="ct-point" ct:value="114"></line><line x1="302" y1="256.4" x2="302.01" y2="256.4" class="ct-point" ct:value="52"></line><line x1="337.33333333333337" y1="294.2" x2="337.34333333333336" y2="294.2" class="ct-point" ct:value="31"></line><line x1="372.6666666666667" y1="251" x2="372.6766666666667" y2="251" class="ct-point" ct:value="55"></line><line x1="408" y1="202.4" x2="408.01" y2="202.4" class="ct-point" ct:value="82"></line><line x1="443.33333333333337" y1="87.19999999999999" x2="443.34333333333336" y2="87.19999999999999" class="ct-point" ct:value="146"></line><line x1="478.6666666666667" y1="346.4" x2="478.6766666666667" y2="346.4" class="ct-point" ct:value="2"></line><line x1="514" y1="224" x2="514.01" y2="224" class="ct-point" ct:value="70"></line><line x1="549.3333333333334" y1="141.2" x2="549.3433333333334" y2="141.2" class="ct-point" ct:value="116"></line><line x1="584.6666666666667" y1="288.8" x2="584.6766666666667" y2="288.8" class="ct-point" ct:value="34"></line><line x1="620" y1="276.2" x2="620.01" y2="276.2" class="ct-point" ct:value="41"></line><line x1="655.3333333333334" y1="350" x2="655.3433333333334" y2="350" class="ct-point" ct:value="0"></line><line x1="690.6666666666667" y1="350" x2="690.6766666666667" y2="350" class="ct-point" ct:value="0"></line><line x1="726" y1="346.4" x2="726.01" y2="346.4" class="ct-point" ct:value="2"></line><line x1="761.3333333333334" y1="342.8" x2="761.3433333333334" y2="342.8" class="ct-point" ct:value="4"></line><line x1="796.6666666666667" y1="323" x2="796.6766666666667" y2="323" class="ct-point" ct:value="15"></line><line x1="832" y1="198.8" x2="832.01" y2="198.8" class="ct-point" ct:value="84"></line><line x1="867.3333333333334" y1="135.8" x2="867.3433333333334" y2="135.8" class="ct-point" ct:value="119"></line><line x1="902.6666666666667" y1="87.19999999999999" x2="902.6766666666667" y2="87.19999999999999" class="ct-point" ct:value="146"></line><line x1="938" y1="324.8" x2="938.01" y2="324.8" class="ct-point" ct:value="14"></line><line x1="973.3333333333334" y1="321.2" x2="973.3433333333334" y2="321.2" class="ct-point" ct:value="16"></line><line x1="1008.6666666666667" y1="276.2" x2="1008.6766666666667" y2="276.2" class="ct-point" ct:value="41"></line><line x1="1044" y1="339.2" x2="1044.01" y2="339.2" class="ct-point" ct:value="6"></line><line x1="1079.3333333333335" y1="245.6" x2="1079.3433333333335" y2="245.6" class="ct-point" ct:value="58"></line><line x1="1114.6666666666667" y1="335.6" x2="1114.6766666666667" y2="335.6" class="ct-point" ct:value="8"></line><line x1="1150" y1="350" x2="1150.01" y2="350" class="ct-point" ct:value="0"></line></g></g><g class="ct-labels"><text x="85.5" y="370" width="35.333333333333336" height="40" class="ct-label ct-horizontal ct-end">16</text><text x="120.83333333333334" y="370" width="35.333333333333336" height="40" class="ct-label ct-horizontal ct-end">17</text><text x="156.16666666666669" y="370" width="35.33333333333333" height="40" class="ct-label ct-horizontal ct-end">18</text><text x="191.5" y="370" width="35.33333333333334" height="40" class="ct-label ct-horizontal ct-end">19</text><text x="226.83333333333334" y="370" width="35.33333333333334" height="40" class="ct-label ct-horizontal ct-end">20</text><text x="262.1666666666667" y="370" width="35.333333333333314" height="40" class="ct-label ct-horizontal ct-end">21</text><text x="297.5" y="370" width="35.33333333333334" height="40" class="ct-label ct-horizontal ct-end">22</text><text x="332.83333333333337" y="370" width="35.33333333333334" height="40" class="ct-label ct-horizontal ct-end">23</text><text x="368.1666666666667" y="370" width="35.333333333333314" height="40" class="ct-label ct-horizontal ct-end">24</text><text x="403.5" y="370" width="35.33333333333337" height="40" class="ct-label ct-horizontal ct-end">25</text><text x="438.83333333333337" y="370" width="35.333333333333314" height="40" class="ct-label ct-horizontal ct-end">26</text><text x="474.1666666666667" y="370" width="35.333333333333314" height="40" class="ct-label ct-horizontal ct-end">27</text><text x="509.5" y="370" width="35.33333333333337" height="40" class="ct-label ct-horizontal ct-end">28</text><text x="544.8333333333334" y="370" width="35.333333333333314" height="40" class="ct-label ct-horizontal ct-end">29</text><text x="580.1666666666667" y="370" width="35.333333333333314" height="40" class="ct-label ct-horizontal ct-end">30</text><text x="615.5" y="370" width="35.33333333333337" height="40" class="ct-label ct-horizontal ct-end">31</text><text x="650.8333333333334" y="370" width="35.33333333333337" height="40" class="ct-label ct-horizontal ct-end">1</text><text x="686.1666666666667" y="370" width="35.33333333333326" height="40" class="ct-label ct-horizontal ct-end">2</text><text x="721.5" y="370" width="35.33333333333337" height="40" class="ct-label ct-horizontal ct-end">3</text><text x="756.8333333333334" y="370" width="35.33333333333337" height="40" class="ct-label ct-horizontal ct-end">4</text><text x="792.1666666666667" y="370" width="35.33333333333326" height="40" class="ct-label ct-horizontal ct-end">5</text><text x="827.5" y="370" width="35.33333333333337" height="40" class="ct-label ct-horizontal ct-end">6</text><text x="862.8333333333334" y="370" width="35.33333333333337" height="40" class="ct-label ct-horizontal ct-end">7</text><text x="898.1666666666667" y="370" width="35.33333333333326" height="40" class="ct-label ct-horizontal ct-end">8</text><text x="933.5" y="370" width="35.33333333333337" height="40" class="ct-label ct-horizontal ct-end">9</text><text x="968.8333333333334" y="370" width="35.33333333333337" height="40" class="ct-label ct-horizontal ct-end">10</text><text x="1004.1666666666667" y="370" width="35.33333333333337" height="40" class="ct-label ct-horizontal ct-end">11</text><text x="1039.5" y="370" width="35.33333333333326" height="40" class="ct-label ct-horizontal ct-end">12</text><text x="1074.8333333333335" y="370" width="35.33333333333337" height="40" class="ct-label ct-horizontal ct-end">13</text><text x="1110.1666666666667" y="370" width="35.33333333333326" height="40" class="ct-label ct-horizontal ct-end">14</text><text x="1145.5" y="370" width="30" height="40" class="ct-label ct-horizontal ct-end">15</text><text y="354.5" x="80" height="45" width="60" class="ct-label ct-vertical ct-start">0</text><text y="309.5" x="80" height="45" width="60" class="ct-label ct-vertical ct-start">25</text><text y="264.5" x="80" height="45" width="60" class="ct-label ct-vertical ct-start">50</text><text y="219.5" x="80" height="45" width="60" class="ct-label ct-vertical ct-start">75</text><text y="174.5" x="80" height="45" width="60" class="ct-label ct-vertical ct-start">100</text><text y="129.5" x="80" height="45" width="60" class="ct-label ct-vertical ct-start">125</text><text y="84.5" x="80" height="30" width="60" class="ct-label ct-vertical ct-start">150</text></g><text class="ct-axis-title ct-label" x="620" y="400" dominant-baseline="text-after-edge" text-anchor="middle">Days</text><text class="ct-axis-title ct-label" x="20" y="215" transform="rotate(-90, 20, 215)" dominant-baseline="hanging" text-anchor="middle">Contributions</text></svg>
    </svg>
